<svg xmlns="http://www.w3.org/2000/svg" xmlns:xlink="http://www.w3.org/1999/xlink" width="800" zoomAndPan="magnify" viewBox="0 0 600 187.499995" height="250" preserveAspectRatio="xMidYMid meet" version="1.0"><defs><g/><clipPath id="a493f10d91"><path d="M 22.402344 57.035156 L 83.972656 57.035156 L 83.972656 109.894531 L 22.402344 109.894531 Z M 22.402344 57.035156 " clip-rule="nonzero"/></clipPath><clipPath id="e07f3d9f98"><path d="M 57.132812 57.359375 C 66.816406 57.359375 83.800781 54.441406 83.867188 78.265625 C 83.042969 88.464844 78.597656 92.636719 71.921875 95.53125 C 65.65625 98.519531 41.179688 109.664062 33.238281 109.664062 C 25.296875 109.664062 22.601562 105.222656 22.601562 92.910156 C 22.601562 89.726562 23.042969 67.417969 30.023438 61.914062 C 35.09375 57.921875 42.402344 57.375 57.132812 57.359375 " clip-rule="nonzero"/></clipPath><clipPath id="2765fdbe04"><path d="M 0.578125 0.0351562 L 61.972656 0.0351562 L 61.972656 52.867188 L 0.578125 52.867188 Z M 0.578125 0.0351562 " clip-rule="nonzero"/></clipPath><clipPath id="eef5a03ed7"><path d="M 35.132812 0.359375 C 44.816406 0.359375 61.800781 -2.558594 61.867188 21.265625 C 61.042969 31.464844 56.597656 35.636719 49.921875 38.53125 C 43.65625 41.519531 19.179688 52.664062 11.238281 52.664062 C 3.296875 52.664062 0.601562 48.222656 0.601562 35.910156 C 0.601562 32.726562 1.042969 10.417969 8.023438 4.914062 C 13.09375 0.921875 20.402344 0.375 35.132812 0.359375 " clip-rule="nonzero"/></clipPath><clipPath id="f8dbf439f7"><rect x="0" width="62" y="0" height="53"/></clipPath><clipPath id="873085257c"><path d="M 49.121094 23 L 108.367188 23 L 108.367188 56.457031 L 49.121094 56.457031 Z M 49.121094 23 " clip-rule="nonzero"/></clipPath><clipPath id="ec6a0f2aeb"><path d="M 57.28125 35.359375 C 47.738281 39.875 46.738281 44.703125 56.113281 48.980469 C 63.621094 52.402344 73.53125 56.210938 80.738281 56.265625 C 92.472656 56.359375 108.203125 46.289062 108.203125 39.949219 C 108.203125 36.816406 100.335938 23.351562 90.132812 23.265625 C 78.621094 23.164062 57.273438 35.359375 57.273438 35.359375 " clip-rule="nonzero"/></clipPath><clipPath id="e7faebee7c"><path d="M 0.121094 0 L 59.269531 0 L 59.269531 33.457031 L 0.121094 33.457031 Z M 0.121094 0 " clip-rule="nonzero"/></clipPath><clipPath id="8dd2672aa8"><path d="M 8.28125 12.359375 C -1.261719 16.875 -2.261719 21.703125 7.113281 25.980469 C 14.621094 29.402344 24.53125 33.210938 31.738281 33.265625 C 43.472656 33.359375 59.203125 23.289062 59.203125 16.949219 C 59.203125 13.816406 51.335938 0.351562 41.132812 0.265625 C 29.621094 0.164062 8.273438 12.359375 8.273438 12.359375 " clip-rule="nonzero"/></clipPath><clipPath id="7b722842e7"><rect x="0" width="60" y="0" height="34"/></clipPath><clipPath id="415c857439"><path d="M 110.691406 21.605469 L 153.09375 21.605469 L 153.09375 48.90625 L 110.691406 48.90625 Z M 110.691406 21.605469 " clip-rule="nonzero"/></clipPath><clipPath id="2f3f349020"><path d="M 110.894531 34.066406 C 111.101562 25.414062 113.734375 21.847656 120.425781 21.804688 C 126.144531 21.773438 152.996094 26.851562 153.085938 33.339844 C 153.144531 37.078125 147.945312 42.53125 145.476562 44.300781 C 139.847656 48.324219 137.75 48.785156 133.875 48.695312 C 127.234375 48.546875 110.746094 48.441406 110.902344 34.066406 " clip-rule="nonzero"/></clipPath><clipPath id="1e754ea21a"><path d="M 0.691406 0.605469 L 43.09375 0.605469 L 43.09375 27.828125 L 0.691406 27.828125 Z M 0.691406 0.605469 " clip-rule="nonzero"/></clipPath><clipPath id="dc7fb8aef5"><path d="M 0.894531 13.066406 C 1.101562 4.414062 3.734375 0.847656 10.425781 0.804688 C 16.144531 0.773438 42.996094 5.851562 43.085938 12.339844 C 43.144531 16.078125 37.945312 21.53125 35.476562 23.300781 C 29.847656 27.324219 27.75 27.785156 23.875 27.695312 C 17.234375 27.546875 0.746094 27.441406 0.902344 13.066406 " clip-rule="nonzero"/></clipPath><clipPath id="2fe2ffb47a"><rect x="0" width="44" y="0" height="28"/></clipPath><clipPath id="9b1f415473"><path d="M 51 94.792969 L 136.832031 94.792969 L 136.832031 164.496094 L 51 164.496094 Z M 51 94.792969 " clip-rule="nonzero"/></clipPath><clipPath id="517738b1fb"><path d="M 93.226562 94.847656 C 108.574219 94.644531 127.164062 102.3125 131.449219 108.445312 C 135.695312 114.527344 136.628906 127.507812 136.703125 134.824219 C 136.769531 141.589844 135.863281 150.679688 134.355469 155.445312 C 132.890625 160.058594 128.324219 164.402344 119.707031 164.292969 C 105.382812 164.113281 100.335938 161.40625 87.046875 156.976562 C 74.964844 152.949219 51.65625 145.84375 51.296875 133.585938 C 51.089844 126.582031 59.507812 115.84375 63.140625 112.160156 C 68.417969 106.8125 77.566406 94.332031 93.226562 94.847656 " clip-rule="nonzero"/></clipPath><clipPath id="c71708608e"><path d="M 0.0625 0.792969 L 85.832031 0.792969 L 85.832031 70.441406 L 0.0625 70.441406 Z M 0.0625 0.792969 " clip-rule="nonzero"/></clipPath><clipPath id="2d5a4e140d"><path d="M 42.226562 0.847656 C 57.574219 0.644531 76.164062 8.3125 80.449219 14.445312 C 84.695312 20.527344 85.628906 33.507812 85.703125 40.824219 C 85.769531 47.589844 84.863281 56.679688 83.355469 61.445312 C 81.890625 66.058594 77.324219 70.402344 68.707031 70.292969 C 54.382812 70.113281 49.335938 67.40625 36.046875 62.976562 C 23.964844 58.949219 0.65625 51.84375 0.296875 39.585938 C 0.0898438 32.582031 8.507812 21.84375 12.140625 18.160156 C 17.417969 12.8125 26.566406 0.332031 42.226562 0.847656 " clip-rule="nonzero"/></clipPath><clipPath id="f42a7a9e04"><rect x="0" width="86" y="0" height="71"/></clipPath><clipPath id="b631a29e08"><path d="M 141.476562 85.5 L 239.640625 85.5 L 239.640625 156.941406 L 141.476562 156.941406 Z M 141.476562 85.5 " clip-rule="nonzero"/></clipPath><clipPath id="9065f7cb16"><path d="M 155.972656 95.265625 C 164.214844 89.808594 170.398438 85.660156 180.804688 85.996094 C 194.707031 86.441406 208.074219 91.917969 215.9375 95.476562 C 223.457031 98.878906 238.984375 104.449219 239.113281 112.785156 C 239.265625 122.070312 225.304688 133.085938 217.992188 138.542969 C 210.589844 144.070312 194.730469 157.21875 181.207031 156.882812 C 169.664062 156.59375 161.679688 147.398438 154.9375 139.164062 C 149.429688 132.4375 141.90625 123.554688 141.953125 114.953125 C 142.011719 105.886719 149.269531 100.839844 155.96875 95.277344 " clip-rule="nonzero"/></clipPath><clipPath id="5a4af38705"><path d="M 0.78125 0.5 L 98.441406 0.5 L 98.441406 71.941406 L 0.78125 71.941406 Z M 0.78125 0.5 " clip-rule="nonzero"/></clipPath><clipPath id="092c65d0cd"><path d="M 14.972656 10.265625 C 23.214844 4.808594 29.398438 0.660156 39.804688 0.996094 C 53.707031 1.441406 67.074219 6.917969 74.9375 10.476562 C 82.457031 13.878906 97.984375 19.449219 98.113281 27.785156 C 98.265625 37.070312 84.304688 48.085938 76.992188 53.542969 C 69.589844 59.070312 53.730469 72.21875 40.207031 71.882812 C 28.664062 71.59375 20.679688 62.398438 13.9375 54.164062 C 8.429688 47.4375 0.90625 38.554688 0.953125 29.953125 C 1.011719 20.886719 8.269531 15.839844 14.96875 10.277344 " clip-rule="nonzero"/></clipPath><clipPath id="ecbd4eb7e0"><rect x="0" width="99" y="0" height="72"/></clipPath><clipPath id="409a729bb3"><path d="M 127.535156 70 L 164.710938 70 L 164.710938 93.628906 L 127.535156 93.628906 Z M 127.535156 70 " clip-rule="nonzero"/></clipPath><clipPath id="9e6dbf83a7"><path d="M 127.585938 80.734375 C 127.5625 77.464844 130.269531 74.730469 133.511719 72.851562 C 136.546875 71.09375 140.046875 70.117188 142.214844 70.066406 C 148.34375 69.929688 164.46875 74.347656 164.574219 79.035156 C 164.648438 82.382812 160.390625 84.894531 155.792969 87.789062 C 151.019531 90.808594 146.132812 93.433594 141.4375 93.457031 C 133.25 93.5 127.53125 84.082031 127.582031 80.734375 " clip-rule="nonzero"/></clipPath><clipPath id="47c64a405c"><path d="M 0.535156 0 L 37.710938 0 L 37.710938 23.589844 L 0.535156 23.589844 Z M 0.535156 0 " clip-rule="nonzero"/></clipPath><clipPath id="f9cb1586ec"><path d="M 0.585938 10.734375 C 0.5625 7.464844 3.269531 4.730469 6.511719 2.851562 C 9.546875 1.09375 13.046875 0.117188 15.214844 0.0664062 C 21.34375 -0.0703125 37.46875 4.347656 37.574219 9.035156 C 37.648438 12.382812 33.390625 14.894531 28.792969 17.789062 C 24.019531 20.808594 19.132812 23.433594 14.4375 23.457031 C 6.25 23.5 0.53125 14.082031 0.582031 10.734375 " clip-rule="nonzero"/></clipPath><clipPath id="0faf8ccfb4"><rect x="0" width="38" y="0" height="24"/></clipPath><clipPath id="519096aacd"><path d="M 139.152344 42 L 174 42 L 174 69.234375 L 139.152344 69.234375 Z M 139.152344 42 " clip-rule="nonzero"/></clipPath><clipPath id="bae830ecfa"><path d="M 163.445312 42.355469 C 167.003906 42.355469 173.25 51.484375 173.695312 60.75 C 173.917969 65.332031 173.464844 65.957031 171.261719 66.851562 C 168.050781 68.144531 165.691406 69.019531 158.863281 69.097656 C 155.261719 69.144531 149.164062 69.023438 144.691406 66.628906 C 141.242188 64.773438 139.296875 59.160156 139.335938 55.347656 C 139.382812 50.296875 147.007812 46.746094 150.925781 45.457031 C 156.246094 43.703125 159.582031 42.207031 163.445312 42.363281 " clip-rule="nonzero"/></clipPath><clipPath id="30e1a0ccd8"><path d="M 0.152344 0.128906 L 35 0.128906 L 35 27.175781 L 0.152344 27.175781 Z M 0.152344 0.128906 " clip-rule="nonzero"/></clipPath><clipPath id="299f9f7e1f"><path d="M 24.445312 0.355469 C 28.003906 0.355469 34.25 9.484375 34.695312 18.75 C 34.917969 23.332031 34.464844 23.957031 32.261719 24.851562 C 29.050781 26.144531 26.691406 27.019531 19.863281 27.097656 C 16.261719 27.144531 10.164062 27.023438 5.691406 24.628906 C 2.242188 22.773438 0.296875 17.160156 0.335938 13.347656 C 0.382812 8.296875 8.007812 4.746094 11.925781 3.457031 C 17.246094 1.703125 20.582031 0.207031 24.445312 0.363281 " clip-rule="nonzero"/></clipPath><clipPath id="5e6c6c34ac"><rect x="0" width="35" y="0" height="28"/></clipPath><clipPath id="7dd9486332"><path d="M 97.332031 74.460938 L 125.792969 74.460938 L 125.792969 95.953125 L 97.332031 95.953125 Z M 97.332031 74.460938 " clip-rule="nonzero"/></clipPath><clipPath id="e12706c0ca"><path d="M 111.925781 74.8125 C 116.09375 74.863281 119.824219 75.59375 121.949219 77.207031 C 124.761719 79.34375 125.660156 81.710938 125.679688 86.609375 C 125.71875 95.046875 122.898438 95.605469 120.066406 95.574219 C 113.777344 95.507812 107.914062 93.117188 103.539062 91.582031 C 100.210938 90.414062 97.535156 89.261719 97.609375 86.515625 C 97.660156 84.703125 98.445312 83.132812 99.378906 81.789062 C 101.425781 78.824219 106.464844 74.78125 111.925781 74.816406 " clip-rule="nonzero"/></clipPath><clipPath id="9d752b791f"><path d="M 0.5 0.679688 L 28.746094 0.679688 L 28.746094 21.746094 L 0.5 21.746094 Z M 0.5 0.679688 " clip-rule="nonzero"/></clipPath><clipPath id="c7530a7590"><path d="M 14.925781 0.8125 C 19.09375 0.863281 22.824219 1.59375 24.949219 3.207031 C 27.761719 5.34375 28.660156 7.710938 28.679688 12.609375 C 28.71875 21.046875 25.898438 21.605469 23.066406 21.574219 C 16.777344 21.507812 10.914062 19.117188 6.539062 17.582031 C 3.210938 16.414062 0.535156 15.261719 0.609375 12.515625 C 0.660156 10.703125 1.445312 9.132812 2.378906 7.789062 C 4.425781 4.824219 9.464844 0.78125 14.925781 0.816406 " clip-rule="nonzero"/></clipPath><clipPath id="506d8c3d0a"><rect x="0" width="29" y="0" height="22"/></clipPath><clipPath id="70632c516c"><path d="M 87.457031 62.265625 L 108.949219 62.265625 L 108.949219 79.691406 L 87.457031 79.691406 Z M 87.457031 62.265625 " clip-rule="nonzero"/></clipPath><clipPath id="93de159f38"><path d="M 98.429688 62.5 C 102.496094 62.449219 108.214844 63.734375 108.371094 69.296875 C 108.460938 72.539062 106.277344 74.390625 101.636719 76.855469 C 98.414062 78.570312 95.722656 79.203125 94.101562 79.1875 C 92.480469 79.175781 91.050781 79.027344 90.183594 78.214844 C 88.753906 76.878906 87.871094 72.140625 87.921875 69.042969 C 88.003906 63.890625 89.492188 62.605469 98.433594 62.5 " clip-rule="nonzero"/></clipPath><clipPath id="414a86835c"><path d="M 0.6875 0.265625 L 21.511719 0.265625 L 21.511719 17.230469 L 0.6875 17.230469 Z M 0.6875 0.265625 " clip-rule="nonzero"/></clipPath><clipPath id="76b36b39f5"><path d="M 11.429688 0.5 C 15.496094 0.449219 21.214844 1.734375 21.371094 7.296875 C 21.460938 10.539062 19.277344 12.390625 14.636719 14.855469 C 11.414062 16.570312 8.722656 17.203125 7.101562 17.1875 C 5.480469 17.175781 4.050781 17.027344 3.183594 16.214844 C 1.753906 14.878906 0.871094 10.140625 0.921875 7.042969 C 1.003906 1.890625 2.492188 0.605469 11.433594 0.5 " clip-rule="nonzero"/></clipPath><clipPath id="3ab10d7b84"><rect x="0" width="22" y="0" height="18"/></clipPath><clipPath id="1e29ae8261"><path d="M 97 50.066406 L 115 50.066406 L 115 62.84375 L 97 62.84375 Z M 97 50.066406 " clip-rule="nonzero"/></clipPath><clipPath id="8e3275ba01"><path d="M 109.40625 50.582031 C 113.089844 50.582031 114.757812 53.277344 114.90625 56.300781 C 115.054688 59.328125 112.832031 62.386719 108.566406 62.492188 C 104.960938 62.585938 97.292969 60.488281 97.167969 57.980469 C 97.023438 55.03125 104.742188 50.582031 109.40625 50.582031 " clip-rule="nonzero"/></clipPath><clipPath id="d2f3840b98"><path d="M 0.0195312 0.503906 L 18 0.503906 L 18 12.710938 L 0.0195312 12.710938 Z M 0.0195312 0.503906 " clip-rule="nonzero"/></clipPath><clipPath id="928483ccd0"><path d="M 12.40625 0.582031 C 16.089844 0.582031 17.757812 3.277344 17.90625 6.300781 C 18.054688 9.328125 15.832031 12.386719 11.566406 12.492188 C 7.960938 12.585938 0.292969 10.488281 0.167969 7.980469 C 0.0234375 5.03125 7.742188 0.582031 12.40625 0.582031 " clip-rule="nonzero"/></clipPath><clipPath id="47493fc647"><rect x="0" width="18" y="0" height="13"/></clipPath><clipPath id="dc7a476d91"><path d="M 116.5 50.066406 L 131.601562 50.066406 L 131.601562 59.941406 L 116.5 59.941406 Z M 116.5 50.066406 " clip-rule="nonzero"/></clipPath><clipPath id="de94763e3a"><path d="M 120.476562 50.074219 C 125.613281 49.964844 131.40625 52.082031 131.480469 54.152344 C 131.554688 56.226562 129.839844 59.402344 122.8125 59.402344 C 117.820312 59.402344 116.589844 56.742188 116.652344 54.230469 C 116.726562 51.460938 117.925781 50.039062 120.476562 50.074219 " clip-rule="nonzero"/></clipPath><clipPath id="279a115989"><path d="M 0.5 0.0664062 L 15.601562 0.0664062 L 15.601562 9.601562 L 0.5 9.601562 Z M 0.5 0.0664062 " clip-rule="nonzero"/></clipPath><clipPath id="5d321ce039"><path d="M 4.476562 0.0742188 C 9.613281 -0.0351562 15.40625 2.082031 15.480469 4.152344 C 15.554688 6.226562 13.839844 9.402344 6.8125 9.402344 C 1.820312 9.402344 0.589844 6.742188 0.652344 4.230469 C 0.726562 1.460938 1.925781 0.0390625 4.476562 0.0742188 " clip-rule="nonzero"/></clipPath><clipPath id="94f36c1c4e"><rect x="0" width="16" y="0" height="10"/></clipPath><clipPath id="6f23f443ff"><path d="M 251.765625 42.265625 L 304.21875 42.265625 L 304.21875 98.390625 L 251.765625 98.390625 Z M 251.765625 42.265625 " clip-rule="nonzero"/></clipPath><clipPath id="28ba7d092f"><path d="M 251.765625 98.3125 L 251.765625 42.371094 L 262.742188 42.371094 L 262.742188 45.957031 C 266.898438 43.492188 271.964844 42.265625 277.941406 42.265625 C 295.320312 42.265625 304.015625 51.621094 304.015625 70.339844 L 304.015625 98.3125 L 293.035156 98.3125 L 293.035156 70.339844 C 293.035156 64.640625 292.085938 60.523438 290.1875 57.992188 C 287.863281 54.824219 283.785156 53.242188 277.941406 53.242188 C 272.101562 53.242188 267.984375 54.824219 265.59375 57.992188 C 263.691406 60.523438 262.742188 64.640625 262.742188 70.339844 L 262.742188 98.3125 L 251.765625 98.3125 " clip-rule="nonzero"/></clipPath><clipPath id="594503cfa0"><path d="M 0.765625 0.265625 L 53.070312 0.265625 L 53.070312 56.378906 L 0.765625 56.378906 Z M 0.765625 0.265625 " clip-rule="nonzero"/></clipPath><clipPath id="ad0bc3494d"><path d="M 0.765625 56.3125 L 0.765625 0.371094 L 11.742188 0.371094 L 11.742188 3.957031 C 15.898438 1.492188 20.964844 0.265625 26.941406 0.265625 C 44.320312 0.265625 53.015625 9.621094 53.015625 28.339844 L 53.015625 56.3125 L 42.035156 56.3125 L 42.035156 28.339844 C 42.035156 22.640625 41.085938 18.523438 39.1875 15.992188 C 36.863281 12.824219 32.785156 11.242188 26.941406 11.242188 C 21.101562 11.242188 16.984375 12.824219 14.59375 15.992188 C 12.691406 18.523438 11.742188 22.640625 11.742188 28.339844 L 11.742188 56.3125 L 0.765625 56.3125 " clip-rule="nonzero"/></clipPath><clipPath id="a39a6c1aa9"><rect x="0" width="54" y="0" height="57"/></clipPath><clipPath id="40d8ea7d42"><path d="M 312.265625 42.261719 L 357.550781 42.261719 L 357.550781 98.335938 L 312.265625 98.335938 Z M 312.265625 42.261719 " clip-rule="nonzero"/></clipPath><clipPath id="525ee8581a"><path d="M 346.570312 81.53125 L 346.570312 75.828125 L 334.855469 75.828125 C 329.789062 75.828125 326.410156 76.5 324.722656 77.835938 C 323.734375 78.613281 323.242188 79.839844 323.242188 81.53125 C 323.242188 83.21875 323.734375 84.449219 324.722656 85.222656 C 326.410156 86.632812 329.789062 87.335938 334.855469 87.335938 C 339.988281 87.335938 343.402344 86.632812 345.09375 85.222656 C 346.082031 84.449219 346.570312 83.21875 346.570312 81.53125 M 357.546875 81.53125 C 357.546875 92.71875 349.984375 98.3125 334.855469 98.3125 C 326.199219 98.3125 319.972656 96.308594 316.171875 92.296875 C 313.570312 89.484375 312.265625 85.894531 312.265625 81.53125 C 312.265625 77.164062 313.570312 73.574219 316.171875 70.761719 C 319.972656 66.753906 326.199219 64.746094 334.855469 64.746094 L 346.570312 64.746094 L 346.570312 59.257812 C 346.570312 57.425781 346.082031 56.128906 345.09375 55.351562 C 343.402344 53.941406 339.988281 53.242188 334.855469 53.242188 C 329.789062 53.242188 326.410156 53.941406 324.722656 55.351562 C 323.734375 56.128906 323.242188 57.359375 323.242188 59.046875 L 312.265625 59.046875 C 312.265625 54.683594 313.570312 51.09375 316.171875 48.28125 C 319.972656 44.269531 326.199219 42.261719 334.855469 42.261719 C 349.984375 42.261719 357.546875 47.859375 357.546875 59.046875 L 357.546875 81.53125 " clip-rule="nonzero"/></clipPath><clipPath id="49ab37f5c4"><path d="M 0.265625 0.261719 L 45.550781 0.261719 L 45.550781 56.335938 L 0.265625 56.335938 Z M 0.265625 0.261719 " clip-rule="nonzero"/></clipPath><clipPath id="5f012488a1"><path d="M 34.570312 39.53125 L 34.570312 33.828125 L 22.855469 33.828125 C 17.789062 33.828125 14.410156 34.5 12.722656 35.835938 C 11.734375 36.613281 11.242188 37.839844 11.242188 39.53125 C 11.242188 41.21875 11.734375 42.449219 12.722656 43.222656 C 14.410156 44.632812 17.789062 45.335938 22.855469 45.335938 C 27.988281 45.335938 31.402344 44.632812 33.09375 43.222656 C 34.082031 42.449219 34.570312 41.21875 34.570312 39.53125 M 45.546875 39.53125 C 45.546875 50.71875 37.984375 56.3125 22.855469 56.3125 C 14.199219 56.3125 7.972656 54.308594 4.171875 50.296875 C 1.570312 47.484375 0.265625 43.894531 0.265625 39.53125 C 0.265625 35.164062 1.570312 31.574219 4.171875 28.761719 C 7.972656 24.753906 14.199219 22.746094 22.855469 22.746094 L 34.570312 22.746094 L 34.570312 17.257812 C 34.570312 15.425781 34.082031 14.128906 33.09375 13.351562 C 31.402344 11.941406 27.988281 11.242188 22.855469 11.242188 C 17.789062 11.242188 14.410156 11.941406 12.722656 13.351562 C 11.734375 14.128906 11.242188 15.359375 11.242188 17.046875 L 0.265625 17.046875 C 0.265625 12.683594 1.570312 9.09375 4.171875 6.28125 C 7.972656 2.269531 14.199219 0.261719 22.855469 0.261719 C 37.984375 0.261719 45.546875 5.859375 45.546875 17.046875 L 45.546875 39.53125 " clip-rule="nonzero"/></clipPath><clipPath id="aead02fbfc"><rect x="0" width="46" y="0" height="57"/></clipPath><clipPath id="18bd1399ca"><path d="M 366.195312 42.261719 L 418.445312 42.261719 L 418.445312 98.390625 L 366.195312 98.390625 Z M 366.195312 42.261719 " clip-rule="nonzero"/></clipPath><clipPath id="814b88cd9e"><path d="M 418.445312 70.339844 C 418.445312 88.988281 409.71875 98.3125 392.265625 98.3125 C 374.886719 98.3125 366.195312 88.988281 366.195312 70.339844 L 366.195312 42.261719 L 377.171875 42.261719 L 377.171875 70.339844 C 377.171875 76.042969 378.121094 80.15625 380.023438 82.691406 C 382.34375 85.789062 386.425781 87.335938 392.265625 87.335938 C 398.109375 87.335938 402.1875 85.789062 404.511719 82.691406 C 406.410156 80.15625 407.359375 76.042969 407.359375 70.339844 L 407.359375 42.261719 L 418.445312 42.261719 L 418.445312 70.339844 " clip-rule="nonzero"/></clipPath><clipPath id="e6d4c18f35"><path d="M 0.195312 0.261719 L 52.445312 0.261719 L 52.445312 56.378906 L 0.195312 56.378906 Z M 0.195312 0.261719 " clip-rule="nonzero"/></clipPath><clipPath id="dcc165ef98"><path d="M 52.445312 28.339844 C 52.445312 46.988281 43.71875 56.3125 26.265625 56.3125 C 8.886719 56.3125 0.195312 46.988281 0.195312 28.339844 L 0.195312 0.261719 L 11.171875 0.261719 L 11.171875 28.339844 C 11.171875 34.042969 12.121094 38.15625 14.023438 40.691406 C 16.34375 43.789062 20.425781 45.335938 26.265625 45.335938 C 32.109375 45.335938 36.1875 43.789062 38.511719 40.691406 C 40.410156 38.15625 41.359375 34.042969 41.359375 28.339844 L 41.359375 0.261719 L 52.445312 0.261719 L 52.445312 28.339844 " clip-rule="nonzero"/></clipPath><clipPath id="700593378e"><rect x="0" width="53" y="0" height="57"/></clipPath><clipPath id="7fe4f144f5"><path d="M 427.109375 20.308594 L 455.1875 20.308594 L 455.1875 98.433594 L 427.109375 98.433594 Z M 427.109375 20.308594 " clip-rule="nonzero"/></clipPath><clipPath id="67f887d0fc"><path d="M 455.082031 98.417969 C 436.433594 98.417969 427.109375 91.625 427.109375 78.046875 L 427.109375 20.308594 L 438.085938 20.308594 L 438.085938 42.371094 L 455.082031 42.371094 L 455.082031 53.347656 L 438.085938 53.347656 L 438.085938 78.046875 C 438.085938 81.003906 439.035156 83.183594 440.9375 84.589844 C 443.539062 86.492188 448.257812 87.441406 455.082031 87.441406 L 455.082031 98.417969 " clip-rule="nonzero"/></clipPath><clipPath id="35f849eeb3"><path d="M 0.109375 0.308594 L 28.105469 0.308594 L 28.105469 78.433594 L 0.109375 78.433594 Z M 0.109375 0.308594 " clip-rule="nonzero"/></clipPath><clipPath id="f0ce5c99ac"><path d="M 28.082031 78.417969 C 9.433594 78.417969 0.109375 71.625 0.109375 58.046875 L 0.109375 0.308594 L 11.085938 0.308594 L 11.085938 22.371094 L 28.082031 22.371094 L 28.082031 33.347656 L 11.085938 33.347656 L 11.085938 58.046875 C 11.085938 61.003906 12.035156 63.183594 13.9375 64.589844 C 16.539062 66.492188 21.257812 67.441406 28.082031 67.441406 L 28.082031 78.417969 " clip-rule="nonzero"/></clipPath><clipPath id="cce2bf22b1"><rect x="0" width="29" y="0" height="79"/></clipPath><clipPath id="7a12f842c9"><path d="M 461.429688 20.308594 L 472.410156 20.308594 L 472.410156 31.285156 L 461.429688 31.285156 Z M 461.429688 42.265625 L 472.410156 42.265625 L 472.410156 98.3125 L 461.429688 98.3125 Z M 461.429688 42.265625 " clip-rule="nonzero"/></clipPath><clipPath id="c4291db391"><path d="M 0.429688 0.308594 L 11.410156 0.308594 L 11.410156 11.285156 L 0.429688 11.285156 Z M 0.429688 22.265625 L 11.410156 22.265625 L 11.410156 78.3125 L 0.429688 78.3125 Z M 0.429688 22.265625 " clip-rule="nonzero"/></clipPath><clipPath id="148c791748"><rect x="0" width="12" y="0" height="79"/></clipPath><clipPath id="09288f7f0a"><path d="M 481.191406 20.164062 L 509.480469 20.164062 L 509.480469 98.457031 L 481.191406 98.457031 Z M 481.191406 20.164062 " clip-rule="nonzero"/></clipPath><clipPath id="17897a6177"><path d="M 509.410156 98.3125 C 490.691406 98.3125 481.332031 91.558594 481.332031 78.046875 L 481.332031 20.308594 L 492.3125 20.308594 L 492.3125 78.046875 C 492.3125 80.933594 493.296875 83.078125 495.265625 84.484375 C 497.867188 86.386719 502.585938 87.335938 509.410156 87.335938 L 509.410156 98.3125 " clip-rule="nonzero"/></clipPath><clipPath id="a0511b8339"><path d="M 0.195312 0.164062 L 28.441406 0.164062 L 28.441406 78.378906 L 0.195312 78.378906 Z M 0.195312 0.164062 " clip-rule="nonzero"/></clipPath><clipPath id="becf9fc100"><path d="M 28.410156 78.3125 C 9.691406 78.3125 0.332031 71.558594 0.332031 58.046875 L 0.332031 0.308594 L 11.3125 0.308594 L 11.3125 58.046875 C 11.3125 60.933594 12.296875 63.078125 14.265625 64.484375 C 16.867188 66.386719 21.585938 67.335938 28.410156 67.335938 L 28.410156 78.3125 " clip-rule="nonzero"/></clipPath><clipPath id="c16e3b067d"><rect x="0" width="29" y="0" height="79"/></clipPath><clipPath id="a50c896454"><path d="M 513.097656 42.207031 L 565.734375 42.207031 L 565.734375 98.457031 L 513.097656 98.457031 Z M 513.097656 42.207031 " clip-rule="nonzero"/></clipPath><clipPath id="090bd63e48"><path d="M 554.117188 64.851562 C 552.992188 57.109375 548.0625 53.242188 539.339844 53.242188 C 530.539062 53.242188 525.578125 57.109375 524.457031 64.851562 L 554.117188 64.851562 M 565.410156 98.3125 L 539.339844 98.3125 C 521.886719 98.3125 513.160156 88.988281 513.160156 70.339844 C 513.160156 51.621094 521.886719 42.265625 539.339844 42.265625 C 556.71875 42.265625 565.410156 51.621094 565.410156 70.339844 L 565.410156 75.832031 L 524.457031 75.832031 C 525.578125 83.5 530.539062 87.335938 539.339844 87.335938 L 565.410156 87.335938 L 565.410156 98.3125 " clip-rule="nonzero"/></clipPath><clipPath id="bb0b26c862"><path d="M 0.0976562 0.207031 L 52.453125 0.207031 L 52.453125 56.378906 L 0.0976562 56.378906 Z M 0.0976562 0.207031 " clip-rule="nonzero"/></clipPath><clipPath id="8b6ade0a17"><path d="M 41.117188 22.851562 C 39.992188 15.109375 35.0625 11.242188 26.339844 11.242188 C 17.539062 11.242188 12.578125 15.109375 11.457031 22.851562 L 41.117188 22.851562 M 52.410156 56.3125 L 26.339844 56.3125 C 8.886719 56.3125 0.160156 46.988281 0.160156 28.339844 C 0.160156 9.621094 8.886719 0.265625 26.339844 0.265625 C 43.71875 0.265625 52.410156 9.621094 52.410156 28.339844 L 52.410156 33.832031 L 11.457031 33.832031 C 12.578125 41.5 17.539062 45.335938 26.339844 45.335938 L 52.410156 45.335938 L 52.410156 56.3125 " clip-rule="nonzero"/></clipPath><clipPath id="44d61bc188"><rect x="0" width="53" y="0" height="57"/></clipPath></defs><g clip-path="url(#a493f10d91)"><g clip-path="url(#e07f3d9f98)"><g transform="matrix(1, 0, 0, 1, 22, 57)"><g clip-path="url(#f8dbf439f7)"><g clip-path="url(#2765fdbe04)"><g clip-path="url(#eef5a03ed7)"><rect x="-154" width="864" fill="#aa2926" height="269.999992" y="-98.249999" fill-opacity="1"/></g></g></g></g></g></g><g clip-path="url(#873085257c)"><g clip-path="url(#ec6a0f2aeb)"><g transform="matrix(1, 0, 0, 1, 49, 23)"><g clip-path="url(#7b722842e7)"><g clip-path="url(#e7faebee7c)"><g clip-path="url(#8dd2672aa8)"><rect x="-181" width="864" fill="#aa2926" height="269.999992" y="-64.249999" fill-opacity="1"/></g></g></g></g></g></g><g clip-path="url(#415c857439)"><g clip-path="url(#2f3f349020)"><g transform="matrix(1, 0, 0, 1, 110, 21)"><g clip-path="url(#2fe2ffb47a)"><g clip-path="url(#1e754ea21a)"><g clip-path="url(#dc7fb8aef5)"><rect x="-242" width="864" fill="#aa2926" height="269.999992" y="-62.249999" fill-opacity="1"/></g></g></g></g></g></g><g clip-path="url(#9b1f415473)"><g clip-path="url(#517738b1fb)"><g transform="matrix(1, 0, 0, 1, 51, 94)"><g clip-path="url(#f42a7a9e04)"><g clip-path="url(#c71708608e)"><g clip-path="url(#2d5a4e140d)"><rect x="-183" width="864" fill="#aa2926" height="269.999992" y="-135.249999" fill-opacity="1"/></g></g></g></g></g></g><g clip-path="url(#b631a29e08)"><g clip-path="url(#9065f7cb16)"><g transform="matrix(1, 0, 0, 1, 141, 85)"><g clip-path="url(#ecbd4eb7e0)"><g clip-path="url(#5a4af38705)"><g clip-path="url(#092c65d0cd)"><rect x="-273" width="864" fill="#aa2926" height="269.999992" y="-126.249999" fill-opacity="1"/></g></g></g></g></g></g><g clip-path="url(#409a729bb3)"><g clip-path="url(#9e6dbf83a7)"><g transform="matrix(1, 0, 0, 1, 127, 70)"><g clip-path="url(#0faf8ccfb4)"><g clip-path="url(#47c64a405c)"><g clip-path="url(#f9cb1586ec)"><rect x="-259" width="864" fill="#b22324" height="269.999992" y="-111.249999" fill-opacity="1"/></g></g></g></g></g></g><g clip-path="url(#519096aacd)"><g clip-path="url(#bae830ecfa)"><g transform="matrix(1, 0, 0, 1, 139, 42)"><g clip-path="url(#5e6c6c34ac)"><g clip-path="url(#30e1a0ccd8)"><g clip-path="url(#299f9f7e1f)"><rect x="-271" width="864" fill="#aa2926" height="269.999992" y="-83.249999" fill-opacity="1"/></g></g></g></g></g></g><g clip-path="url(#7dd9486332)"><g clip-path="url(#e12706c0ca)"><g transform="matrix(1, 0, 0, 1, 97, 74)"><g clip-path="url(#506d8c3d0a)"><g clip-path="url(#9d752b791f)"><g clip-path="url(#c7530a7590)"><rect x="-229" width="864" fill="#aa2926" height="269.999992" y="-115.249999" fill-opacity="1"/></g></g></g></g></g></g><g clip-path="url(#70632c516c)"><g clip-path="url(#93de159f38)"><g transform="matrix(1, 0, 0, 1, 87, 62)"><g clip-path="url(#3ab10d7b84)"><g clip-path="url(#414a86835c)"><g clip-path="url(#76b36b39f5)"><rect x="-219" width="864" fill="#aa2926" height="269.999992" y="-103.249999" fill-opacity="1"/></g></g></g></g></g></g><g clip-path="url(#1e29ae8261)"><g clip-path="url(#8e3275ba01)"><g transform="matrix(1, 0, 0, 1, 97, 50)"><g clip-path="url(#47493fc647)"><g clip-path="url(#d2f3840b98)"><g clip-path="url(#928483ccd0)"><rect x="-229" width="864" fill="#aa2926" height="269.999992" y="-91.249999" fill-opacity="1"/></g></g></g></g></g></g><g clip-path="url(#dc7a476d91)"><g clip-path="url(#de94763e3a)"><g transform="matrix(1, 0, 0, 1, 116, 50)"><g clip-path="url(#94f36c1c4e)"><g clip-path="url(#279a115989)"><g clip-path="url(#5d321ce039)"><rect x="-248" width="864" fill="#aa2926" height="269.999992" y="-91.249999" fill-opacity="1"/></g></g></g></g></g></g><g clip-path="url(#6f23f443ff)"><g clip-path="url(#28ba7d092f)"><g transform="matrix(1, 0, 0, 1, 251, 42)"><g clip-path="url(#a39a6c1aa9)"><g clip-path="url(#594503cfa0)"><g clip-path="url(#ad0bc3494d)"><path fill="#000000" d="M 0.765625 0.265625 L 53.015625 0.265625 L 53.015625 56.390625 L 0.765625 56.390625 Z M 0.765625 0.265625 " fill-opacity="1" fill-rule="nonzero"/></g></g></g></g></g></g><g clip-path="url(#40d8ea7d42)"><g clip-path="url(#525ee8581a)"><g transform="matrix(1, 0, 0, 1, 312, 42)"><g clip-path="url(#aead02fbfc)"><g clip-path="url(#49ab37f5c4)"><g clip-path="url(#5f012488a1)"><path fill="#000000" d="M 0.265625 0.261719 L 45.550781 0.261719 L 45.550781 56.335938 L 0.265625 56.335938 Z M 0.265625 0.261719 " fill-opacity="1" fill-rule="nonzero"/></g></g></g></g></g></g><g clip-path="url(#18bd1399ca)"><g clip-path="url(#814b88cd9e)"><g transform="matrix(1, 0, 0, 1, 366, 42)"><g clip-path="url(#700593378e)"><g clip-path="url(#e6d4c18f35)"><g clip-path="url(#dcc165ef98)"><path fill="#000000" d="M 0.195312 0.261719 L 52.445312 0.261719 L 52.445312 56.390625 L 0.195312 56.390625 Z M 0.195312 0.261719 " fill-opacity="1" fill-rule="nonzero"/></g></g></g></g></g></g><g clip-path="url(#7fe4f144f5)"><g clip-path="url(#67f887d0fc)"><g transform="matrix(1, 0, 0, 1, 427, 20)"><g clip-path="url(#cce2bf22b1)"><g clip-path="url(#35f849eeb3)"><g clip-path="url(#f0ce5c99ac)"><path fill="#000000" d="M 0.109375 0.308594 L 28.082031 0.308594 L 28.082031 78.433594 L 0.109375 78.433594 Z M 0.109375 0.308594 " fill-opacity="1" fill-rule="nonzero"/></g></g></g></g></g></g><g clip-path="url(#7a12f842c9)"><g transform="matrix(1, 0, 0, 1, 461, 20)"><g clip-path="url(#148c791748)"><g clip-path="url(#c4291db391)"><path fill="#000000" d="M 0.429688 0.308594 L 11.410156 0.308594 L 11.410156 78.320312 L 0.429688 78.320312 Z M 0.429688 0.308594 " fill-opacity="1" fill-rule="nonzero"/></g></g></g></g><g clip-path="url(#09288f7f0a)"><g clip-path="url(#17897a6177)"><g transform="matrix(1, 0, 0, 1, 481, 20)"><g clip-path="url(#c16e3b067d)"><g clip-path="url(#a0511b8339)"><g clip-path="url(#becf9fc100)"><rect x="-613" width="864" fill="#000000" height="269.999992" y="-61.249999" fill-opacity="1"/></g></g></g></g></g></g><g clip-path="url(#a50c896454)"><g clip-path="url(#090bd63e48)"><g transform="matrix(1, 0, 0, 1, 513, 42)"><g clip-path="url(#44d61bc188)"><g clip-path="url(#bb0b26c862)"><g clip-path="url(#8b6ade0a17)"><rect x="-645" width="864" fill="#000000" height="269.999992" y="-83.249999" fill-opacity="1"/></g></g></g></g></g></g><g fill="#aa2926" fill-opacity="1"><g transform="translate(249.621554, 146.439423)"><g><path d="M 2.84375 0 L 2.84375 -26.328125 L 7.15625 -26.328125 L 7.15625 0 Z M 2.84375 0 "/></g></g></g><g fill="#aa2926" fill-opacity="1"><g transform="translate(259.624835, 146.439423)"><g><path d="M 20.15625 -26.375 L 24.484375 -26.375 L 24.484375 0 L 20.15625 0 L 7.15625 -19.671875 L 7.15625 0 L 2.84375 0 L 2.84375 -26.375 L 7.15625 -26.375 L 20.15625 -6.75 Z M 20.15625 -26.375 "/></g></g></g><g fill="#aa2926" fill-opacity="1"><g transform="translate(286.944388, 146.439423)"><g><path d="M 1.484375 -22.96875 L 1.484375 -26.328125 L 19.859375 -26.328125 L 19.859375 -22.96875 L 12.84375 -22.96875 L 12.84375 0 L 8.53125 0 L 8.53125 -22.96875 Z M 1.484375 -22.96875 "/></g></g></g><g fill="#aa2926" fill-opacity="1"><g transform="translate(308.315018, 146.439423)"><g><path d="M 17.390625 -26.375 L 17.390625 -23 L 7.15625 -23 L 7.15625 -15 L 16.25 -15 L 16.25 -11.671875 L 7.15625 -11.671875 L 7.15625 -3.375 L 17.390625 -3.375 L 17.390625 0 L 2.84375 0 L 2.84375 -26.375 Z M 17.390625 -26.375 "/></g></g></g><g fill="#aa2926" fill-opacity="1"><g transform="translate(328.170006, 146.439423)"><g><path d="M 7.15625 -10.6875 L 7.15625 0 L 2.84375 0 L 2.84375 -26.328125 L 11.9375 -26.328125 C 14.914062 -26.328125 17.210938 -25.585938 18.828125 -24.109375 C 20.441406 -22.640625 21.25 -20.765625 21.25 -18.484375 C 21.25 -16.722656 20.710938 -15.132812 19.640625 -13.71875 C 18.566406 -12.300781 16.921875 -11.378906 14.703125 -10.953125 L 21.671875 0 L 16.40625 0 L 9.8125 -10.6875 Z M 7.15625 -22.96875 L 7.15625 -14.0625 L 11.9375 -14.0625 C 13.582031 -14.0625 14.804688 -14.453125 15.609375 -15.234375 C 16.421875 -16.015625 16.828125 -17.101562 16.828125 -18.5 C 16.828125 -19.90625 16.421875 -21 15.609375 -21.78125 C 14.804688 -22.570312 13.582031 -22.96875 11.9375 -22.96875 Z M 7.15625 -22.96875 "/></g></g></g><g fill="#aa2926" fill-opacity="1"><g transform="translate(352.117246, 146.439423)"><g><path d="M 20.15625 -26.375 L 24.484375 -26.375 L 24.484375 0 L 20.15625 0 L 7.15625 -19.671875 L 7.15625 0 L 2.84375 0 L 2.84375 -26.375 L 7.15625 -26.375 L 20.15625 -6.75 Z M 20.15625 -26.375 "/></g></g></g><g fill="#aa2926" fill-opacity="1"><g transform="translate(379.436799, 146.439423)"><g><path d="M 17.390625 -26.375 L 17.390625 -23 L 7.15625 -23 L 7.15625 -15 L 16.25 -15 L 16.25 -11.671875 L 7.15625 -11.671875 L 7.15625 -3.375 L 17.390625 -3.375 L 17.390625 0 L 2.84375 0 L 2.84375 -26.375 Z M 17.390625 -26.375 "/></g></g></g><g fill="#aa2926" fill-opacity="1"><g transform="translate(399.291787, 146.439423)"><g><path d="M 1.484375 -22.96875 L 1.484375 -26.328125 L 19.859375 -26.328125 L 19.859375 -22.96875 L 12.84375 -22.96875 L 12.84375 0 L 8.53125 0 L 8.53125 -22.96875 Z M 1.484375 -22.96875 "/></g></g></g><g fill="#aa2926" fill-opacity="1"><g transform="translate(420.662417, 146.439423)"><g/></g></g><g fill="#aa2926" fill-opacity="1"><g transform="translate(432.029778, 146.439423)"><g><path d="M 2.84375 0 L 2.84375 -26.328125 L 18.34375 -26.328125 L 18.34375 -22.96875 L 7.15625 -22.96875 L 7.15625 -14.96875 L 15.875 -14.96875 L 15.875 -11.625 L 7.15625 -11.625 L 7.15625 0 Z M 2.84375 0 "/></g></g></g><g fill="#aa2926" fill-opacity="1"><g transform="translate(451.543737, 146.439423)"><g><path d="M 6.4375 -10.921875 C 5.9375 -10.429688 5.316406 -10.1875 4.578125 -10.1875 C 3.847656 -10.1875 3.238281 -10.429688 2.75 -10.921875 C 2.257812 -11.421875 2.015625 -12.035156 2.015625 -12.765625 C 2.015625 -13.503906 2.257812 -14.125 2.75 -14.625 C 3.238281 -15.132812 3.847656 -15.390625 4.578125 -15.390625 C 5.316406 -15.390625 5.9375 -15.132812 6.4375 -14.625 C 6.945312 -14.125 7.203125 -13.503906 7.203125 -12.765625 C 7.203125 -12.035156 6.945312 -11.421875 6.4375 -10.921875 Z M 6.4375 -10.921875 "/></g></g></g><g fill="#aa2926" fill-opacity="1"><g transform="translate(460.789185, 146.439423)"><g><path d="M 2.84375 0 L 2.84375 -26.328125 L 7.15625 -26.328125 L 7.15625 0 Z M 2.84375 0 "/></g></g></g><g fill="#aa2926" fill-opacity="1"><g transform="translate(470.792477, 146.439423)"><g><path d="M 6.4375 -10.921875 C 5.9375 -10.429688 5.316406 -10.1875 4.578125 -10.1875 C 3.847656 -10.1875 3.238281 -10.429688 2.75 -10.921875 C 2.257812 -11.421875 2.015625 -12.035156 2.015625 -12.765625 C 2.015625 -13.503906 2.257812 -14.125 2.75 -14.625 C 3.238281 -15.132812 3.847656 -15.390625 4.578125 -15.390625 C 5.316406 -15.390625 5.9375 -15.132812 6.4375 -14.625 C 6.945312 -14.125 7.203125 -13.503906 7.203125 -12.765625 C 7.203125 -12.035156 6.945312 -11.421875 6.4375 -10.921875 Z M 6.4375 -10.921875 "/></g></g></g><g fill="#aa2926" fill-opacity="1"><g transform="translate(480.037903, 146.439423)"><g><path d="M 2.84375 -26.328125 L 12.890625 -26.328125 C 15.585938 -26.328125 17.679688 -25.671875 19.171875 -24.359375 C 20.660156 -23.046875 21.40625 -21.378906 21.40625 -19.359375 C 21.40625 -16.398438 19.703125 -14.457031 16.296875 -13.53125 C 18.015625 -13.25 19.394531 -12.484375 20.4375 -11.234375 C 21.488281 -9.984375 22.015625 -8.550781 22.015625 -6.9375 C 22.015625 -4.914062 21.226562 -3.253906 19.65625 -1.953125 C 18.09375 -0.648438 16 0 13.375 0 L 2.84375 0 Z M 7.15625 -22.96875 L 7.15625 -15.15625 L 12.5 -15.15625 C 13.914062 -15.15625 15.019531 -15.492188 15.8125 -16.171875 C 16.613281 -16.859375 17.015625 -17.8125 17.015625 -19.03125 C 17.015625 -20.257812 16.613281 -21.222656 15.8125 -21.921875 C 15.019531 -22.617188 13.914062 -22.96875 12.5 -22.96875 Z M 7.15625 -3.375 L 13 -3.375 C 14.457031 -3.375 15.601562 -3.738281 16.4375 -4.46875 C 17.269531 -5.195312 17.6875 -6.210938 17.6875 -7.515625 C 17.6875 -8.816406 17.242188 -9.851562 16.359375 -10.625 C 15.484375 -11.394531 14.3125 -11.78125 12.84375 -11.78125 L 7.15625 -11.78125 Z M 7.15625 -3.375 "/></g></g></g><g fill="#aa2926" fill-opacity="1"><g transform="translate(503.909379, 146.439423)"><g><path d="M 6.4375 -10.921875 C 5.9375 -10.429688 5.316406 -10.1875 4.578125 -10.1875 C 3.847656 -10.1875 3.238281 -10.429688 2.75 -10.921875 C 2.257812 -11.421875 2.015625 -12.035156 2.015625 -12.765625 C 2.015625 -13.503906 2.257812 -14.125 2.75 -14.625 C 3.238281 -15.132812 3.847656 -15.390625 4.578125 -15.390625 C 5.316406 -15.390625 5.9375 -15.132812 6.4375 -14.625 C 6.945312 -14.125 7.203125 -13.503906 7.203125 -12.765625 C 7.203125 -12.035156 6.945312 -11.421875 6.4375 -10.921875 Z M 6.4375 -10.921875 "/></g></g></g><g fill="#aa2926" fill-opacity="1"><g transform="translate(513.154804, 146.439423)"><g><path d="M 7.15625 -10.6875 L 7.15625 0 L 2.84375 0 L 2.84375 -26.328125 L 11.9375 -26.328125 C 14.914062 -26.328125 17.210938 -25.585938 18.828125 -24.109375 C 20.441406 -22.640625 21.25 -20.765625 21.25 -18.484375 C 21.25 -16.722656 20.710938 -15.132812 19.640625 -13.71875 C 18.566406 -12.300781 16.921875 -11.378906 14.703125 -10.953125 L 21.671875 0 L 16.40625 0 L 9.8125 -10.6875 Z M 7.15625 -22.96875 L 7.15625 -14.0625 L 11.9375 -14.0625 C 13.582031 -14.0625 14.804688 -14.453125 15.609375 -15.234375 C 16.421875 -16.015625 16.828125 -17.101562 16.828125 -18.5 C 16.828125 -19.90625 16.421875 -21 15.609375 -21.78125 C 14.804688 -22.570312 13.582031 -22.96875 11.9375 -22.96875 Z M 7.15625 -22.96875 "/></g></g></g><g fill="#aa2926" fill-opacity="1"><g transform="translate(537.102067, 146.439423)"><g><path d="M 6.4375 -10.921875 C 5.9375 -10.429688 5.316406 -10.1875 4.578125 -10.1875 C 3.847656 -10.1875 3.238281 -10.429688 2.75 -10.921875 C 2.257812 -11.421875 2.015625 -12.035156 2.015625 -12.765625 C 2.015625 -13.503906 2.257812 -14.125 2.75 -14.625 C 3.238281 -15.132812 3.847656 -15.390625 4.578125 -15.390625 C 5.316406 -15.390625 5.9375 -15.132812 6.4375 -14.625 C 6.945312 -14.125 7.203125 -13.503906 7.203125 -12.765625 C 7.203125 -12.035156 6.945312 -11.421875 6.4375 -10.921875 Z M 6.4375 -10.921875 "/></g></g></g><g fill="#aa2926" fill-opacity="1"><g transform="translate(546.347492, 146.439423)"><g><path d="M 17.390625 -26.375 L 17.390625 -23 L 7.15625 -23 L 7.15625 -15 L 16.25 -15 L 16.25 -11.671875 L 7.15625 -11.671875 L 7.15625 -3.375 L 17.390625 -3.375 L 17.390625 0 L 2.84375 0 L 2.84375 -26.375 Z M 17.390625 -26.375 "/></g></g></g></svg>